<?xml version="1.0" standalone="no"?>
<!DOCTYPE svg PUBLIC "-//W3C//DTD SVG 20010904//EN"
 "http://www.w3.org/TR/2001/REC-SVG-20010904/DTD/svg10.dtd">
<svg version="1.0" xmlns="http://www.w3.org/2000/svg"
 width="300.000000pt" height="300.000000pt" viewBox="0 0 300.000000 300.000000"
 preserveAspectRatio="xMidYMid meet">

<g transform="translate(0.000000,300.000000) scale(0.100000,-0.100000)"
fill="#000000" stroke="none">
<path d="M2190 1495 c0 -8 2 -15 4 -15 2 0 6 7 10 15 3 8 1 15 -4 15 -6 0 -10
-7 -10 -15z"/>
<path d="M2469 1493 c-13 -17 -13 -17 6 -3 18 14 19 14 7 -2 -8 -9 -19 -15
-26 -12 -7 3 -19 -2 -26 -11 -11 -13 -11 -19 3 -32 15 -15 18 -15 36 2 11 9
19 21 16 25 -2 4 3 7 11 7 10 0 7 -8 -11 -27 -35 -37 -31 -50 5 -15 35 34 35
33 12 63 -18 23 -19 23 -33 5z"/>
<path d="M2369 1373 c-13 -16 -12 -17 4 -4 9 7 17 15 17 17 0 8 -8 3 -21 -13z"/>
<path d="M2418 1373 c7 -3 16 -2 19 1 4 3 -2 6 -13 5 -11 0 -14 -3 -6 -6z"/>
<path d="M2310 1334 c0 -9 40 -23 44 -15 3 5 -5 11 -19 13 -14 3 -25 4 -25 2z"/>
</g>
</svg>
